<svg xmlns:cc="http://creativecommons.org/ns#" inkscape:export-xdpi="96" version="1.1" style="fill:none;stroke:none;" inkscape:export-ydpi="96" xmlns:svg="http://www.w3.org/2000/svg" xmlns="http://www.w3.org/2000/svg" xmlns:inkscape="http://www.inkscape.org/namespaces/inkscape" height="352" xmlns:osb="http://www.openswatchbook.org/uri/2009/osb" xmlns:dc="http://purl.org/dc/elements/1.1/" xmlns:sodipodi="http://sodipodi.sourceforge.net/DTD/sodipodi-0.dtd" xmlns:rdf="http://www.w3.org/1999/02/22-rdf-syntax-ns#" xmlns:xlink="http://www.w3.org/1999/xlink" width="704" viewBox="0 0 704 352">
    <title></title>
    <defs/>
    <sodipodi:namedview inkscape:document-units="px" borderlayer="true" bordercolor="#666666" pagecolor="#ffffff" inkscape:pagecheckerboard="true"/>
    <metadata>
        <rdf:RDF>
            <cc:Work>
                <dc:format>image/svg+xml</dc:format>
                <dc:type rdf:resource="http://purl.org/dc/dcmitype/MovingImage"/>
                <dc:title></dc:title>
            </cc:Work>
        </rdf:RDF>
    </metadata>
    <g id="Composition_c96d40b5435d4132ad80028446aed4d3" inkscape:label="Composition" inkscape:groupmode="layer">
        <g id="Layer_19d71554e745474387eb503a10230647" inkscape:label="svg166" opacity="1" inkscape:groupmode="layer" transform="matrix(1, 0, 0, 1, 0, 0)">
            <g id="Layer_173bf95b4624491c8008750cca9756bd" inkscape:label="Kali linux" opacity="1" inkscape:groupmode="layer" transform="matrix(1, 0, 0, 1, 0, 0)">
                <g id="Layer_fa072f74fc894386bcd2fb49ba8b7a21" inkscape:label="Layer" opacity="1" inkscape:groupmode="layer" transform="matrix(1, 0, 0, 1, 0, 0)"/>
                <g transform="translate(0 -20)">
                    <g transform="rotate(0)">
                        <g transform="scale(1 1)">
                            <g transform="translate(0 0)">
                                <g id="Group_4b9aa4cb641547ba9e09c884bf7be30f" inkscape:label="g128" opacity="1">
                                    <g id="Group_84c7e0929b91463fa3c05e9c5d05bd42" inkscape:label="g126" opacity="1" transform="matrix(1, 0, 0, 1, 0, 0)">
                                        <g id="Group_4818839387884f5aaeb6660bda716aaa" inkscape:label="g124" opacity="1" transform="matrix(1, 0, 0, 1, 0, 0)">
                                            <g id="Group_44f81c3879544b3cb9374682d7a8cac5" inkscape:label="g122" opacity="1" transform="matrix(1, 0, 0, 1, -121.467, -304.054)">
                                                <g id="Group_b781f34fb25c4dcc894919bd0ac8f1a3" inkscape:label="kali linux 1" opacity="1" transform="matrix(1, 0, 0, 1, 0, 0)">
                                                    <g id="Group_a7dc2ec094324f3f8eace2a3b0cdd642" inkscape:label="text115" opacity="1" transform="matrix(1, 0, 0, 1, 0, 0)">
                                                        <g id="Stroke_8942b5f1d0814b35bee6e08820219307" stroke-opacity="1" inkscape:label="path394" stroke-width="1" stroke="#00000000" opacity="1" fill-opacity="1" transform="matrix(1, 0, 0, 1, 0, 0)" fill="#ff0000">
                                                            <path style="stroke:none;" sodipodi:nodetypes="cccccccccccccccccccccccc" d="M 33.0108,285.97 C 33.0108,285.97 33.0108,306.106 33.0108,306.106 33.0108,306.106 34.1148,306.106 34.1148,306.106 34.5788,306.106 34.9308,306.042 35.1708,305.914 35.4108,305.77 35.6508,305.538 35.8908,305.218 35.8908,305.218 40.5948,298.21 40.5948,298.21 40.8828,297.81 41.2108,297.514 41.5788,297.322 41.9468,297.114 42.4188,297.01 42.9948,297.01 42.9948,297.01 49.8108,297.01 49.8108,297.01 49.8108,297.01 43.3788,305.866 43.3788,305.866 42.7708,306.666 42.0508,307.322 41.2188,307.834 41.5868,308.106 41.9228,308.426 42.2268,308.794 42.5308,309.146 42.8188,309.546 43.0908,309.994 43.0908,309.994 50.0988,321.898 50.0988,321.898 50.0988,321.898 43.3788,321.898 43.3788,321.898 42.8188,321.898 42.3388,321.81 41.9388,321.634 41.5388,321.442 41.2028,321.114 40.9308,320.65 40.9308,320.65 36.2268,311.842 36.2268,311.842 36.0028,311.442 35.7708,311.186 35.5308,311.074 35.2908,310.946 34.9308,310.882 34.4508,310.882 34.4508,310.882 33.0108,310.882 33.0108,310.882 33.0108,310.882 33.0108,321.898 33.0108,321.898 33.0108,321.898 25.5708,321.898 25.5708,321.898 25.5708,321.898 25.5708,285.97 25.5708,285.97 25.5708,285.97 33.0108,285.97 33.0108,285.97 Z"/>
                                                            <path style="fill:none;stroke-dasharray:none;stroke-linecap:butt;stroke-linejoin:miter;stroke-miterlimit:4;" sodipodi:nodetypes="cccccccccccccccccccccccc" d="M 33.0108,285.97 C 33.0108,285.97 33.0108,306.106 33.0108,306.106 33.0108,306.106 34.1148,306.106 34.1148,306.106 34.5788,306.106 34.9308,306.042 35.1708,305.914 35.4108,305.77 35.6508,305.538 35.8908,305.218 35.8908,305.218 40.5948,298.21 40.5948,298.21 40.8828,297.81 41.2108,297.514 41.5788,297.322 41.9468,297.114 42.4188,297.01 42.9948,297.01 42.9948,297.01 49.8108,297.01 49.8108,297.01 49.8108,297.01 43.3788,305.866 43.3788,305.866 42.7708,306.666 42.0508,307.322 41.2188,307.834 41.5868,308.106 41.9228,308.426 42.2268,308.794 42.5308,309.146 42.8188,309.546 43.0908,309.994 43.0908,309.994 50.0988,321.898 50.0988,321.898 50.0988,321.898 43.3788,321.898 43.3788,321.898 42.8188,321.898 42.3388,321.81 41.9388,321.634 41.5388,321.442 41.2028,321.114 40.9308,320.65 40.9308,320.65 36.2268,311.842 36.2268,311.842 36.0028,311.442 35.7708,311.186 35.5308,311.074 35.2908,310.946 34.9308,310.882 34.4508,310.882 34.4508,310.882 33.0108,310.882 33.0108,310.882 33.0108,310.882 33.0108,321.898 33.0108,321.898 33.0108,321.898 25.5708,321.898 25.5708,321.898 25.5708,321.898 25.5708,285.97 25.5708,285.97 25.5708,285.97 33.0108,285.97 33.0108,285.97 Z"/>
                                                        </g>
                                                        <g id="Group_b8bb2b3e2a4b4ea792f965fbcdeb96c9" inkscape:label="path396" opacity="1" transform="matrix(1, 0, 0, 1, 0, 0)">
                                                            <g id="Fill_402fcbdabfec42deb3d6ccb1ba94b3dd" style="stroke:none;" inkscape:label="Fill" fill-opacity="1" fill="#ff0000">
                                                                <path style="stroke:none;" sodipodi:nodetypes="cccccccccc" d="M 60.5148,317.362 C 61.4748,317.362 62.3148,317.194 63.0348,316.858 63.7548,316.522 64.4828,315.978 65.2188,315.226 65.2188,315.226 65.2188,311.77 65.2188,311.77 63.7308,311.834 62.5068,311.962 61.5468,312.154 60.5868,312.346 59.8268,312.586 59.2668,312.874 58.7068,313.162 58.3148,313.49 58.0908,313.858 57.8828,314.226 57.7788,314.626 57.7788,315.058 57.7788,315.906 58.0108,316.506 58.4748,316.858 58.9388,317.194 59.6188,317.362 60.5148,317.362 60.5148,317.362 60.5148,317.362 60.5148,317.362 Z"/>
                                                                <path style="stroke:none;" sodipodi:nodetypes="ccccccccccccccccccccccccccccccccc" d="M 69.0588,321.898 C 68.3548,321.898 67.8188,321.802 67.4508,321.61 67.0988,321.418 66.8028,321.018 66.5628,320.41 66.5628,320.41 66.0348,319.042 66.0348,319.042 65.4108,319.57 64.8108,320.034 64.2348,320.434 63.6588,320.834 63.0588,321.178 62.4348,321.466 61.8268,321.738 61.1708,321.938 60.4668,322.066 59.7788,322.21 59.0108,322.282 58.1628,322.282 57.0268,322.282 55.9948,322.138 55.0668,321.85 54.1388,321.546 53.3468,321.106 52.6908,320.53 52.0508,319.954 51.5548,319.242 51.2028,318.394 50.8508,317.53 50.6748,316.538 50.6748,315.418 50.6748,314.538 50.8988,313.634 51.3468,312.706 51.7948,311.778 52.5708,310.938 53.6748,310.186 54.7788,309.418 56.2668,308.778 58.1388,308.266 60.0108,307.754 62.3708,307.466 65.2188,307.402 65.2188,307.402 65.2188,306.346 65.2188,306.346 65.2188,304.89 64.9148,303.842 64.3068,303.202 63.7148,302.546 62.8668,302.218 61.7628,302.218 60.8828,302.218 60.1628,302.314 59.6028,302.506 59.0428,302.698 58.5388,302.914 58.0908,303.154 57.6588,303.394 57.2348,303.61 56.8188,303.802 56.4028,303.994 55.9068,304.09 55.3308,304.09 54.8188,304.09 54.3868,303.962 54.0348,303.706 53.6828,303.45 53.3948,303.146 53.1708,302.794 53.1708,302.794 51.8268,300.466 51.8268,300.466 53.3308,299.138 54.9948,298.154 56.8188,297.514 58.6588,296.858 60.6268,296.53 62.7228,296.53 64.2268,296.53 65.5788,296.778 66.7788,297.274 67.9948,297.754 69.0188,298.434 69.8508,299.314 70.6988,300.178 71.3468,301.21 71.7948,302.41 72.2428,303.61 72.4668,304.922 72.4668,306.346 72.4668,306.346 72.4668,321.898 72.4668,321.898 72.4668,321.898 69.0588,321.898 69.0588,321.898 Z"/>
                                                            </g>
                                                            <g id="Stroke_2fade763838841d08b54493f044d81ea" style="fill:none;stroke-dasharray:none;stroke-linecap:butt;stroke-linejoin:miter;stroke-miterlimit:4;" stroke-opacity="1" inkscape:label="Stroke" stroke-width="1" stroke="#00000000">
                                                                <path style="fill:none;stroke-dasharray:none;stroke-linecap:butt;stroke-linejoin:miter;stroke-miterlimit:4;" sodipodi:nodetypes="cccccccccc" d="M 60.5148,317.362 C 61.4748,317.362 62.3148,317.194 63.0348,316.858 63.7548,316.522 64.4828,315.978 65.2188,315.226 65.2188,315.226 65.2188,311.77 65.2188,311.77 63.7308,311.834 62.5068,311.962 61.5468,312.154 60.5868,312.346 59.8268,312.586 59.2668,312.874 58.7068,313.162 58.3148,313.49 58.0908,313.858 57.8828,314.226 57.7788,314.626 57.7788,315.058 57.7788,315.906 58.0108,316.506 58.4748,316.858 58.9388,317.194 59.6188,317.362 60.5148,317.362 60.5148,317.362 60.5148,317.362 60.5148,317.362 Z"/>
                                                                <path style="fill:none;stroke-dasharray:none;stroke-linecap:butt;stroke-linejoin:miter;stroke-miterlimit:4;" sodipodi:nodetypes="ccccccccccccccccccccccccccccccccc" d="M 69.0588,321.898 C 68.3548,321.898 67.8188,321.802 67.4508,321.61 67.0988,321.418 66.8028,321.018 66.5628,320.41 66.5628,320.41 66.0348,319.042 66.0348,319.042 65.4108,319.57 64.8108,320.034 64.2348,320.434 63.6588,320.834 63.0588,321.178 62.4348,321.466 61.8268,321.738 61.1708,321.938 60.4668,322.066 59.7788,322.21 59.0108,322.282 58.1628,322.282 57.0268,322.282 55.9948,322.138 55.0668,321.85 54.1388,321.546 53.3468,321.106 52.6908,320.53 52.0508,319.954 51.5548,319.242 51.2028,318.394 50.8508,317.53 50.6748,316.538 50.6748,315.418 50.6748,314.538 50.8988,313.634 51.3468,312.706 51.7948,311.778 52.5708,310.938 53.6748,310.186 54.7788,309.418 56.2668,308.778 58.1388,308.266 60.0108,307.754 62.3708,307.466 65.2188,307.402 65.2188,307.402 65.2188,306.346 65.2188,306.346 65.2188,304.89 64.9148,303.842 64.3068,303.202 63.7148,302.546 62.8668,302.218 61.7628,302.218 60.8828,302.218 60.1628,302.314 59.6028,302.506 59.0428,302.698 58.5388,302.914 58.0908,303.154 57.6588,303.394 57.2348,303.61 56.8188,303.802 56.4028,303.994 55.9068,304.09 55.3308,304.09 54.8188,304.09 54.3868,303.962 54.0348,303.706 53.6828,303.45 53.3948,303.146 53.1708,302.794 53.1708,302.794 51.8268,300.466 51.8268,300.466 53.3308,299.138 54.9948,298.154 56.8188,297.514 58.6588,296.858 60.6268,296.53 62.7228,296.53 64.2268,296.53 65.5788,296.778 66.7788,297.274 67.9948,297.754 69.0188,298.434 69.8508,299.314 70.6988,300.178 71.3468,301.21 71.7948,302.41 72.2428,303.61 72.4668,304.922 72.4668,306.346 72.4668,306.346 72.4668,321.898 72.4668,321.898 72.4668,321.898 69.0588,321.898 69.0588,321.898 Z"/>
                                                            </g>
                                                        </g>
                                                        <g id="Stroke_fa0baebc44994f4683ae8b5073464bf5" stroke-opacity="1" inkscape:label="path398" stroke-width="1" stroke="#00000000" opacity="1" fill-opacity="1" transform="matrix(1, 0, 0, 1, 0, 0)" fill="#ff0000">
                                                            <path style="stroke:none;" sodipodi:nodetypes="cccc" d="M 84.6588,285.97 C 84.6588,285.97 84.6588,321.898 84.6588,321.898 84.6588,321.898 77.2188,321.898 77.2188,321.898 77.2188,321.898 77.2188,285.97 77.2188,285.97 77.2188,285.97 84.6588,285.97 84.6588,285.97 Z"/>
                                                            <path style="fill:none;stroke-dasharray:none;stroke-linecap:butt;stroke-linejoin:miter;stroke-miterlimit:4;" sodipodi:nodetypes="cccc" d="M 84.6588,285.97 C 84.6588,285.97 84.6588,321.898 84.6588,321.898 84.6588,321.898 77.2188,321.898 77.2188,321.898 77.2188,321.898 77.2188,285.97 77.2188,285.97 77.2188,285.97 84.6588,285.97 84.6588,285.97 Z"/>
                                                        </g>
                                                        <g id="Group_d33e12aca01144d0ac5078b7a8c27ede" inkscape:label="path400" opacity="1" transform="matrix(1, 0, 0, 1, 0, 0)">
                                                            <g id="Fill_0fe779c70d01485fae54e39a399a153b" style="stroke:none;" inkscape:label="Fill" fill-opacity="1" fill="#ff0000">
                                                                <path style="stroke:none;" sodipodi:nodetypes="ccccccccccccccccc" d="M 98.0748,290.194 C 98.0748,290.786 97.9548,291.346 97.7148,291.874 97.4748,292.386 97.1468,292.842 96.7308,293.242 96.3148,293.626 95.8268,293.938 95.2668,294.178 94.7228,294.402 94.1388,294.514 93.5148,294.514 92.9068,294.514 92.3388,294.402 91.8108,294.178 91.2828,293.938 90.8108,293.626 90.3948,293.242 89.9948,292.842 89.6748,292.386 89.4348,291.874 89.2108,291.346 89.0988,290.786 89.0988,290.194 89.0988,289.586 89.2108,289.018 89.4348,288.49 89.6748,287.962 89.9948,287.498 90.3948,287.098 90.8108,286.698 91.2828,286.386 91.8108,286.162 92.3388,285.938 92.9068,285.826 93.5148,285.826 94.1388,285.826 94.7228,285.938 95.2668,286.162 95.8268,286.386 96.3148,286.698 96.7308,287.098 97.1468,287.498 97.4748,287.962 97.7148,288.49 97.9548,289.018 98.0748,289.586 98.0748,290.194 98.0748,290.194 98.0748,290.194 98.0748,290.194 Z"/>
                                                                <path style="stroke:none;" sodipodi:nodetypes="cccc" d="M 97.3068,297.01 C 97.3068,297.01 97.3068,321.898 97.3068,321.898 97.3068,321.898 89.8668,321.898 89.8668,321.898 89.8668,321.898 89.8668,297.01 89.8668,297.01 89.8668,297.01 97.3068,297.01 97.3068,297.01 Z"/>
                                                            </g>
                                                            <g id="Stroke_97feacf4c5f54a17ba6eb9b756def8fc" style="fill:none;stroke-dasharray:none;stroke-linecap:butt;stroke-linejoin:miter;stroke-miterlimit:4;" stroke-opacity="1" inkscape:label="Stroke" stroke-width="1" stroke="#00000000">
                                                                <path style="fill:none;stroke-dasharray:none;stroke-linecap:butt;stroke-linejoin:miter;stroke-miterlimit:4;" sodipodi:nodetypes="ccccccccccccccccc" d="M 98.0748,290.194 C 98.0748,290.786 97.9548,291.346 97.7148,291.874 97.4748,292.386 97.1468,292.842 96.7308,293.242 96.3148,293.626 95.8268,293.938 95.2668,294.178 94.7228,294.402 94.1388,294.514 93.5148,294.514 92.9068,294.514 92.3388,294.402 91.8108,294.178 91.2828,293.938 90.8108,293.626 90.3948,293.242 89.9948,292.842 89.6748,292.386 89.4348,291.874 89.2108,291.346 89.0988,290.786 89.0988,290.194 89.0988,289.586 89.2108,289.018 89.4348,288.49 89.6748,287.962 89.9948,287.498 90.3948,287.098 90.8108,286.698 91.2828,286.386 91.8108,286.162 92.3388,285.938 92.9068,285.826 93.5148,285.826 94.1388,285.826 94.7228,285.938 95.2668,286.162 95.8268,286.386 96.3148,286.698 96.7308,287.098 97.1468,287.498 97.4748,287.962 97.7148,288.49 97.9548,289.018 98.0748,289.586 98.0748,290.194 98.0748,290.194 98.0748,290.194 98.0748,290.194 Z"/>
                                                                <path style="fill:none;stroke-dasharray:none;stroke-linecap:butt;stroke-linejoin:miter;stroke-miterlimit:4;" sodipodi:nodetypes="cccc" d="M 97.3068,297.01 C 97.3068,297.01 97.3068,321.898 97.3068,321.898 97.3068,321.898 89.8668,321.898 89.8668,321.898 89.8668,321.898 89.8668,297.01 89.8668,297.01 89.8668,297.01 97.3068,297.01 97.3068,297.01 Z"/>
                                                            </g>
                                                        </g>
                                                        <g id="Stroke_02a9801e0bd74ffda7d13da9682bad23" stroke-opacity="1" inkscape:label="path402" stroke-width="1" stroke="#00000000" opacity="1" fill-opacity="1" transform="matrix(1, 0, 0, 1, 0, 0)" fill="#ff0000">
                                                            <path style="stroke:none;" sodipodi:nodetypes="cccc" d="M 121.043,285.97 C 121.043,285.97 121.043,321.898 121.043,321.898 121.043,321.898 113.603,321.898 113.603,321.898 113.603,321.898 113.603,285.97 113.603,285.97 113.603,285.97 121.043,285.97 121.043,285.97 Z"/>
                                                            <path style="fill:none;stroke-dasharray:none;stroke-linecap:butt;stroke-linejoin:miter;stroke-miterlimit:4;" sodipodi:nodetypes="cccc" d="M 121.043,285.97 C 121.043,285.97 121.043,321.898 121.043,321.898 121.043,321.898 113.603,321.898 113.603,321.898 113.603,321.898 113.603,285.97 113.603,285.97 113.603,285.97 121.043,285.97 121.043,285.97 Z"/>
                                                        </g>
                                                        <g id="Group_eb76139a1e31454f89227cdbc3ecce57" inkscape:label="path404" opacity="1" transform="matrix(1, 0, 0, 1, 0, 0)">
                                                            <g id="Fill_b0f66b16994f40debfd369cffc9dab5d" style="stroke:none;" inkscape:label="Fill" fill-opacity="1" fill="#ff0000">
                                                                <path style="stroke:none;" sodipodi:nodetypes="ccccccccccccccccc" d="M 134.459,290.194 C 134.459,290.786 134.339,291.346 134.099,291.874 133.859,292.386 133.531,292.842 133.115,293.242 132.699,293.626 132.211,293.938 131.651,294.178 131.107,294.402 130.523,294.514 129.899,294.514 129.291,294.514 128.723,294.402 128.195,294.178 127.667,293.938 127.195,293.626 126.779,293.242 126.379,292.842 126.059,292.386 125.819,291.874 125.595,291.346 125.483,290.786 125.483,290.194 125.483,289.586 125.595,289.018 125.819,288.49 126.059,287.962 126.379,287.498 126.779,287.098 127.195,286.698 127.667,286.386 128.195,286.162 128.723,285.938 129.291,285.826 129.899,285.826 130.523,285.826 131.107,285.938 131.651,286.162 132.211,286.386 132.699,286.698 133.115,287.098 133.531,287.498 133.859,287.962 134.099,288.49 134.339,289.018 134.459,289.586 134.459,290.194 134.459,290.194 134.459,290.194 134.459,290.194 Z"/>
                                                                <path style="stroke:none;" sodipodi:nodetypes="cccc" d="M 133.691,297.01 C 133.691,297.01 133.691,321.898 133.691,321.898 133.691,321.898 126.251,321.898 126.251,321.898 126.251,321.898 126.251,297.01 126.251,297.01 126.251,297.01 133.691,297.01 133.691,297.01 Z"/>
                                                            </g>
                                                            <g id="Stroke_5ab3c703744f491796a67dddeb62e819" style="fill:none;stroke-dasharray:none;stroke-linecap:butt;stroke-linejoin:miter;stroke-miterlimit:4;" stroke-opacity="1" inkscape:label="Stroke" stroke-width="1" stroke="#00000000">
                                                                <path style="fill:none;stroke-dasharray:none;stroke-linecap:butt;stroke-linejoin:miter;stroke-miterlimit:4;" sodipodi:nodetypes="ccccccccccccccccc" d="M 134.459,290.194 C 134.459,290.786 134.339,291.346 134.099,291.874 133.859,292.386 133.531,292.842 133.115,293.242 132.699,293.626 132.211,293.938 131.651,294.178 131.107,294.402 130.523,294.514 129.899,294.514 129.291,294.514 128.723,294.402 128.195,294.178 127.667,293.938 127.195,293.626 126.779,293.242 126.379,292.842 126.059,292.386 125.819,291.874 125.595,291.346 125.483,290.786 125.483,290.194 125.483,289.586 125.595,289.018 125.819,288.49 126.059,287.962 126.379,287.498 126.779,287.098 127.195,286.698 127.667,286.386 128.195,286.162 128.723,285.938 129.291,285.826 129.899,285.826 130.523,285.826 131.107,285.938 131.651,286.162 132.211,286.386 132.699,286.698 133.115,287.098 133.531,287.498 133.859,287.962 134.099,288.49 134.339,289.018 134.459,289.586 134.459,290.194 134.459,290.194 134.459,290.194 134.459,290.194 Z"/>
                                                                <path style="fill:none;stroke-dasharray:none;stroke-linecap:butt;stroke-linejoin:miter;stroke-miterlimit:4;" sodipodi:nodetypes="cccc" d="M 133.691,297.01 C 133.691,297.01 133.691,321.898 133.691,321.898 133.691,321.898 126.251,321.898 126.251,321.898 126.251,321.898 126.251,297.01 126.251,297.01 126.251,297.01 133.691,297.01 133.691,297.01 Z"/>
                                                            </g>
                                                        </g>
                                                        <g id="Stroke_387e65ce0cc0485fa5169e9227977dd6" stroke-opacity="1" inkscape:label="path406" stroke-width="1" stroke="#00000000" opacity="1" fill-opacity="1" transform="matrix(1, 0, 0, 1, 0, 0)" fill="#ff0000">
                                                            <path style="stroke:none;" sodipodi:nodetypes="ccccccccccccccccccccc" d="M 138.899,321.898 C 138.899,321.898 138.899,297.01 138.899,297.01 138.899,297.01 143.507,297.01 143.507,297.01 144.435,297.01 145.043,297.426 145.331,298.258 145.331,298.258 145.763,299.698 145.763,299.698 146.243,299.25 146.739,298.834 147.251,298.45 147.763,298.066 148.307,297.746 148.883,297.49 149.475,297.218 150.107,297.01 150.779,296.866 151.467,296.706 152.211,296.626 153.011,296.626 154.371,296.626 155.571,296.866 156.611,297.346 157.667,297.81 158.555,298.466 159.275,299.314 159.995,300.146 160.539,301.146 160.907,302.314 161.275,303.466 161.459,304.722 161.459,306.082 161.459,306.082 161.459,321.898 161.459,321.898 161.459,321.898 154.019,321.898 154.019,321.898 154.019,321.898 154.019,306.082 154.019,306.082 154.019,304.866 153.739,303.922 153.179,303.25 152.619,302.562 151.795,302.218 150.707,302.218 149.891,302.218 149.123,302.394 148.403,302.746 147.683,303.098 146.995,303.57 146.339,304.162 146.339,304.162 146.339,321.898 146.339,321.898 146.339,321.898 138.899,321.898 138.899,321.898 Z"/>
                                                            <path style="fill:none;stroke-dasharray:none;stroke-linecap:butt;stroke-linejoin:miter;stroke-miterlimit:4;" sodipodi:nodetypes="ccccccccccccccccccccc" d="M 138.899,321.898 C 138.899,321.898 138.899,297.01 138.899,297.01 138.899,297.01 143.507,297.01 143.507,297.01 144.435,297.01 145.043,297.426 145.331,298.258 145.331,298.258 145.763,299.698 145.763,299.698 146.243,299.25 146.739,298.834 147.251,298.45 147.763,298.066 148.307,297.746 148.883,297.49 149.475,297.218 150.107,297.01 150.779,296.866 151.467,296.706 152.211,296.626 153.011,296.626 154.371,296.626 155.571,296.866 156.611,297.346 157.667,297.81 158.555,298.466 159.275,299.314 159.995,300.146 160.539,301.146 160.907,302.314 161.275,303.466 161.459,304.722 161.459,306.082 161.459,306.082 161.459,321.898 161.459,321.898 161.459,321.898 154.019,321.898 154.019,321.898 154.019,321.898 154.019,306.082 154.019,306.082 154.019,304.866 153.739,303.922 153.179,303.25 152.619,302.562 151.795,302.218 150.707,302.218 149.891,302.218 149.123,302.394 148.403,302.746 147.683,303.098 146.995,303.57 146.339,304.162 146.339,304.162 146.339,321.898 146.339,321.898 146.339,321.898 138.899,321.898 138.899,321.898 Z"/>
                                                        </g>
                                                        <g id="Stroke_c0b2d12bc15e41aca0be9894d7ba9e3f" stroke-opacity="1" inkscape:label="path408" stroke-width="1" stroke="#00000000" opacity="1" fill-opacity="1" transform="matrix(1, 0, 0, 1, 0, 0)" fill="#ff0000">
                                                            <path style="stroke:none;" sodipodi:nodetypes="ccccccccccccccccccccc" d="M 173.459,297.01 C 173.459,297.01 173.459,312.802 173.459,312.802 173.459,314.034 173.739,314.986 174.299,315.658 174.859,316.33 175.683,316.666 176.771,316.666 177.587,316.666 178.347,316.498 179.051,316.162 179.771,315.826 180.467,315.354 181.139,314.746 181.139,314.746 181.139,297.01 181.139,297.01 181.139,297.01 188.579,297.01 188.579,297.01 188.579,297.01 188.579,321.898 188.579,321.898 188.579,321.898 183.971,321.898 183.971,321.898 183.043,321.898 182.435,321.482 182.147,320.65 182.147,320.65 181.691,319.21 181.691,319.21 181.211,319.674 180.715,320.098 180.203,320.482 179.691,320.85 179.139,321.17 178.547,321.442 177.971,321.698 177.347,321.898 176.675,322.042 176.003,322.202 175.267,322.282 174.467,322.282 173.107,322.282 171.899,322.05 170.843,321.586 169.803,321.106 168.923,320.442 168.203,319.594 167.483,318.746 166.939,317.746 166.571,316.594 166.203,315.442 166.019,314.178 166.019,312.802 166.019,312.802 166.019,297.01 166.019,297.01 166.019,297.01 173.459,297.01 173.459,297.01 Z"/>
                                                            <path style="fill:none;stroke-dasharray:none;stroke-linecap:butt;stroke-linejoin:miter;stroke-miterlimit:4;" sodipodi:nodetypes="ccccccccccccccccccccc" d="M 173.459,297.01 C 173.459,297.01 173.459,312.802 173.459,312.802 173.459,314.034 173.739,314.986 174.299,315.658 174.859,316.33 175.683,316.666 176.771,316.666 177.587,316.666 178.347,316.498 179.051,316.162 179.771,315.826 180.467,315.354 181.139,314.746 181.139,314.746 181.139,297.01 181.139,297.01 181.139,297.01 188.579,297.01 188.579,297.01 188.579,297.01 188.579,321.898 188.579,321.898 188.579,321.898 183.971,321.898 183.971,321.898 183.043,321.898 182.435,321.482 182.147,320.65 182.147,320.65 181.691,319.21 181.691,319.21 181.211,319.674 180.715,320.098 180.203,320.482 179.691,320.85 179.139,321.17 178.547,321.442 177.971,321.698 177.347,321.898 176.675,322.042 176.003,322.202 175.267,322.282 174.467,322.282 173.107,322.282 171.899,322.05 170.843,321.586 169.803,321.106 168.923,320.442 168.203,319.594 167.483,318.746 166.939,317.746 166.571,316.594 166.203,315.442 166.019,314.178 166.019,312.802 166.019,312.802 166.019,297.01 166.019,297.01 166.019,297.01 173.459,297.01 173.459,297.01 Z"/>
                                                        </g>
                                                        <g id="Stroke_7432c7f27b624bb0bd344f47b30b5ad8" stroke-opacity="1" inkscape:label="path410" stroke-width="1" stroke="#00000000" opacity="1" fill-opacity="1" transform="matrix(1, 0, 0, 1, 0, 0)" fill="#ff0000">
                                                            <path style="stroke:none;" sodipodi:nodetypes="cccccccccccccccccccccc" d="M 199.235,309.034 C 199.235,309.034 191.219,297.01 191.219,297.01 191.219,297.01 198.371,297.01 198.371,297.01 198.899,297.01 199.283,297.082 199.523,297.226 199.779,297.354 200.003,297.578 200.195,297.898 200.195,297.898 204.635,305.266 204.635,305.266 204.827,304.674 205.107,304.106 205.475,303.562 205.475,303.562 208.643,298.018 208.643,298.018 208.867,297.666 209.099,297.41 209.339,297.25 209.595,297.09 209.907,297.01 210.275,297.01 210.275,297.01 217.091,297.01 217.091,297.01 217.091,297.01 209.075,308.698 209.075,308.698 209.075,308.698 217.427,321.898 217.427,321.898 217.427,321.898 210.275,321.898 210.275,321.898 209.747,321.898 209.315,321.77 208.979,321.514 208.659,321.258 208.403,320.954 208.211,320.602 208.211,320.602 203.771,312.97 203.771,312.97 203.595,313.53 203.379,314.01 203.123,314.41 203.123,314.41 199.475,320.602 199.475,320.602 199.251,320.922 198.987,321.218 198.683,321.49 198.379,321.762 197.987,321.898 197.507,321.898 197.507,321.898 190.883,321.898 190.883,321.898 190.883,321.898 199.235,309.034 199.235,309.034 Z"/>
                                                            <path style="fill:none;stroke-dasharray:none;stroke-linecap:butt;stroke-linejoin:miter;stroke-miterlimit:4;" sodipodi:nodetypes="cccccccccccccccccccccc" d="M 199.235,309.034 C 199.235,309.034 191.219,297.01 191.219,297.01 191.219,297.01 198.371,297.01 198.371,297.01 198.899,297.01 199.283,297.082 199.523,297.226 199.779,297.354 200.003,297.578 200.195,297.898 200.195,297.898 204.635,305.266 204.635,305.266 204.827,304.674 205.107,304.106 205.475,303.562 205.475,303.562 208.643,298.018 208.643,298.018 208.867,297.666 209.099,297.41 209.339,297.25 209.595,297.09 209.907,297.01 210.275,297.01 210.275,297.01 217.091,297.01 217.091,297.01 217.091,297.01 209.075,308.698 209.075,308.698 209.075,308.698 217.427,321.898 217.427,321.898 217.427,321.898 210.275,321.898 210.275,321.898 209.747,321.898 209.315,321.77 208.979,321.514 208.659,321.258 208.403,320.954 208.211,320.602 208.211,320.602 203.771,312.97 203.771,312.97 203.595,313.53 203.379,314.01 203.123,314.41 203.123,314.41 199.475,320.602 199.475,320.602 199.251,320.922 198.987,321.218 198.683,321.49 198.379,321.762 197.987,321.898 197.507,321.898 197.507,321.898 190.883,321.898 190.883,321.898 190.883,321.898 199.235,309.034 199.235,309.034 Z"/>
                                                        </g>
                                                    </g>
                                                    <g id="Group_3987ea466c194337a2967094f6f6bbe5" inkscape:label="text119" opacity="1" transform="matrix(1, 0, 0, 1, 0, 0)">
                                                        <g id="Stroke_7ad387fe85824a5eb26b3c1c24933749" stroke-opacity="1" inkscape:label="path413" stroke-width="1" stroke="#00000000" opacity="1" fill-opacity="1" transform="matrix(1, 0, 0, 1, 0, 0)" fill="#ff0000">
                                                            <path style="stroke:none;" sodipodi:nodetypes="cccccccccccccccccccccccc" d="M 33.0108,285.97 C 33.0108,285.97 33.0108,306.106 33.0108,306.106 33.0108,306.106 34.1148,306.106 34.1148,306.106 34.5788,306.106 34.9308,306.042 35.1708,305.914 35.4108,305.77 35.6508,305.538 35.8908,305.218 35.8908,305.218 40.5948,298.21 40.5948,298.21 40.8828,297.81 41.2108,297.514 41.5788,297.322 41.9468,297.114 42.4188,297.01 42.9948,297.01 42.9948,297.01 49.8108,297.01 49.8108,297.01 49.8108,297.01 43.3788,305.866 43.3788,305.866 42.7708,306.666 42.0508,307.322 41.2188,307.834 41.5868,308.106 41.9228,308.426 42.2268,308.794 42.5308,309.146 42.8188,309.546 43.0908,309.994 43.0908,309.994 50.0988,321.898 50.0988,321.898 50.0988,321.898 43.3788,321.898 43.3788,321.898 42.8188,321.898 42.3388,321.81 41.9388,321.634 41.5388,321.442 41.2028,321.114 40.9308,320.65 40.9308,320.65 36.2268,311.842 36.2268,311.842 36.0028,311.442 35.7708,311.186 35.5308,311.074 35.2908,310.946 34.9308,310.882 34.4508,310.882 34.4508,310.882 33.0108,310.882 33.0108,310.882 33.0108,310.882 33.0108,321.898 33.0108,321.898 33.0108,321.898 25.5708,321.898 25.5708,321.898 25.5708,321.898 25.5708,285.97 25.5708,285.97 25.5708,285.97 33.0108,285.97 33.0108,285.97 Z"/>
                                                            <path style="fill:none;stroke-dasharray:none;stroke-linecap:butt;stroke-linejoin:miter;stroke-miterlimit:4;" sodipodi:nodetypes="cccccccccccccccccccccccc" d="M 33.0108,285.97 C 33.0108,285.97 33.0108,306.106 33.0108,306.106 33.0108,306.106 34.1148,306.106 34.1148,306.106 34.5788,306.106 34.9308,306.042 35.1708,305.914 35.4108,305.77 35.6508,305.538 35.8908,305.218 35.8908,305.218 40.5948,298.21 40.5948,298.21 40.8828,297.81 41.2108,297.514 41.5788,297.322 41.9468,297.114 42.4188,297.01 42.9948,297.01 42.9948,297.01 49.8108,297.01 49.8108,297.01 49.8108,297.01 43.3788,305.866 43.3788,305.866 42.7708,306.666 42.0508,307.322 41.2188,307.834 41.5868,308.106 41.9228,308.426 42.2268,308.794 42.5308,309.146 42.8188,309.546 43.0908,309.994 43.0908,309.994 50.0988,321.898 50.0988,321.898 50.0988,321.898 43.3788,321.898 43.3788,321.898 42.8188,321.898 42.3388,321.81 41.9388,321.634 41.5388,321.442 41.2028,321.114 40.9308,320.65 40.9308,320.65 36.2268,311.842 36.2268,311.842 36.0028,311.442 35.7708,311.186 35.5308,311.074 35.2908,310.946 34.9308,310.882 34.4508,310.882 34.4508,310.882 33.0108,310.882 33.0108,310.882 33.0108,310.882 33.0108,321.898 33.0108,321.898 33.0108,321.898 25.5708,321.898 25.5708,321.898 25.5708,321.898 25.5708,285.97 25.5708,285.97 25.5708,285.97 33.0108,285.97 33.0108,285.97 Z"/>
                                                        </g>
                                                        <g id="Group_f686aa90c7fd414981354b8366aad01d" inkscape:label="path415" opacity="1" transform="matrix(1, 0, 0, 1, 0, 0)">
                                                            <g id="Fill_57beff2fecbc440d814a8d09118dec91" style="stroke:none;" inkscape:label="Fill" fill-opacity="1" fill="#ff0000">
                                                                <path style="stroke:none;" sodipodi:nodetypes="cccccccccc" d="M 60.5148,317.362 C 61.4748,317.362 62.3148,317.194 63.0348,316.858 63.7548,316.522 64.4828,315.978 65.2188,315.226 65.2188,315.226 65.2188,311.77 65.2188,311.77 63.7308,311.834 62.5068,311.962 61.5468,312.154 60.5868,312.346 59.8268,312.586 59.2668,312.874 58.7068,313.162 58.3148,313.49 58.0908,313.858 57.8828,314.226 57.7788,314.626 57.7788,315.058 57.7788,315.906 58.0108,316.506 58.4748,316.858 58.9388,317.194 59.6188,317.362 60.5148,317.362 60.5148,317.362 60.5148,317.362 60.5148,317.362 Z"/>
                                                                <path style="stroke:none;" sodipodi:nodetypes="ccccccccccccccccccccccccccccccccc" d="M 69.0588,321.898 C 68.3548,321.898 67.8188,321.802 67.4508,321.61 67.0988,321.418 66.8028,321.018 66.5628,320.41 66.5628,320.41 66.0348,319.042 66.0348,319.042 65.4108,319.57 64.8108,320.034 64.2348,320.434 63.6588,320.834 63.0588,321.178 62.4348,321.466 61.8268,321.738 61.1708,321.938 60.4668,322.066 59.7788,322.21 59.0108,322.282 58.1628,322.282 57.0268,322.282 55.9948,322.138 55.0668,321.85 54.1388,321.546 53.3468,321.106 52.6908,320.53 52.0508,319.954 51.5548,319.242 51.2028,318.394 50.8508,317.53 50.6748,316.538 50.6748,315.418 50.6748,314.538 50.8988,313.634 51.3468,312.706 51.7948,311.778 52.5708,310.938 53.6748,310.186 54.7788,309.418 56.2668,308.778 58.1388,308.266 60.0108,307.754 62.3708,307.466 65.2188,307.402 65.2188,307.402 65.2188,306.346 65.2188,306.346 65.2188,304.89 64.9148,303.842 64.3068,303.202 63.7148,302.546 62.8668,302.218 61.7628,302.218 60.8828,302.218 60.1628,302.314 59.6028,302.506 59.0428,302.698 58.5388,302.914 58.0908,303.154 57.6588,303.394 57.2348,303.61 56.8188,303.802 56.4028,303.994 55.9068,304.09 55.3308,304.09 54.8188,304.09 54.3868,303.962 54.0348,303.706 53.6828,303.45 53.3948,303.146 53.1708,302.794 53.1708,302.794 51.8268,300.466 51.8268,300.466 53.3308,299.138 54.9948,298.154 56.8188,297.514 58.6588,296.858 60.6268,296.53 62.7228,296.53 64.2268,296.53 65.5788,296.778 66.7788,297.274 67.9948,297.754 69.0188,298.434 69.8508,299.314 70.6988,300.178 71.3468,301.21 71.7948,302.41 72.2428,303.61 72.4668,304.922 72.4668,306.346 72.4668,306.346 72.4668,321.898 72.4668,321.898 72.4668,321.898 69.0588,321.898 69.0588,321.898 Z"/>
                                                            </g>
                                                            <g id="Stroke_97e006e23ec244989ab5841c1346a04e" style="fill:none;stroke-dasharray:none;stroke-linecap:butt;stroke-linejoin:miter;stroke-miterlimit:4;" stroke-opacity="1" inkscape:label="Stroke" stroke-width="1" stroke="#00000000">
                                                                <path style="fill:none;stroke-dasharray:none;stroke-linecap:butt;stroke-linejoin:miter;stroke-miterlimit:4;" sodipodi:nodetypes="cccccccccc" d="M 60.5148,317.362 C 61.4748,317.362 62.3148,317.194 63.0348,316.858 63.7548,316.522 64.4828,315.978 65.2188,315.226 65.2188,315.226 65.2188,311.77 65.2188,311.77 63.7308,311.834 62.5068,311.962 61.5468,312.154 60.5868,312.346 59.8268,312.586 59.2668,312.874 58.7068,313.162 58.3148,313.49 58.0908,313.858 57.8828,314.226 57.7788,314.626 57.7788,315.058 57.7788,315.906 58.0108,316.506 58.4748,316.858 58.9388,317.194 59.6188,317.362 60.5148,317.362 60.5148,317.362 60.5148,317.362 60.5148,317.362 Z"/>
                                                                <path style="fill:none;stroke-dasharray:none;stroke-linecap:butt;stroke-linejoin:miter;stroke-miterlimit:4;" sodipodi:nodetypes="ccccccccccccccccccccccccccccccccc" d="M 69.0588,321.898 C 68.3548,321.898 67.8188,321.802 67.4508,321.61 67.0988,321.418 66.8028,321.018 66.5628,320.41 66.5628,320.41 66.0348,319.042 66.0348,319.042 65.4108,319.57 64.8108,320.034 64.2348,320.434 63.6588,320.834 63.0588,321.178 62.4348,321.466 61.8268,321.738 61.1708,321.938 60.4668,322.066 59.7788,322.21 59.0108,322.282 58.1628,322.282 57.0268,322.282 55.9948,322.138 55.0668,321.85 54.1388,321.546 53.3468,321.106 52.6908,320.53 52.0508,319.954 51.5548,319.242 51.2028,318.394 50.8508,317.53 50.6748,316.538 50.6748,315.418 50.6748,314.538 50.8988,313.634 51.3468,312.706 51.7948,311.778 52.5708,310.938 53.6748,310.186 54.7788,309.418 56.2668,308.778 58.1388,308.266 60.0108,307.754 62.3708,307.466 65.2188,307.402 65.2188,307.402 65.2188,306.346 65.2188,306.346 65.2188,304.89 64.9148,303.842 64.3068,303.202 63.7148,302.546 62.8668,302.218 61.7628,302.218 60.8828,302.218 60.1628,302.314 59.6028,302.506 59.0428,302.698 58.5388,302.914 58.0908,303.154 57.6588,303.394 57.2348,303.61 56.8188,303.802 56.4028,303.994 55.9068,304.09 55.3308,304.09 54.8188,304.09 54.3868,303.962 54.0348,303.706 53.6828,303.45 53.3948,303.146 53.1708,302.794 53.1708,302.794 51.8268,300.466 51.8268,300.466 53.3308,299.138 54.9948,298.154 56.8188,297.514 58.6588,296.858 60.6268,296.53 62.7228,296.53 64.2268,296.53 65.5788,296.778 66.7788,297.274 67.9948,297.754 69.0188,298.434 69.8508,299.314 70.6988,300.178 71.3468,301.21 71.7948,302.41 72.2428,303.61 72.4668,304.922 72.4668,306.346 72.4668,306.346 72.4668,321.898 72.4668,321.898 72.4668,321.898 69.0588,321.898 69.0588,321.898 Z"/>
                                                            </g>
                                                        </g>
                                                        <g id="Stroke_b1e71ff42d3f44b89b9cbefd3227f68a" stroke-opacity="1" inkscape:label="path417" stroke-width="1" stroke="#00000000" opacity="1" fill-opacity="1" transform="matrix(1, 0, 0, 1, 0, 0)" fill="#ff0000">
                                                            <path style="stroke:none;" sodipodi:nodetypes="cccc" d="M 84.6588,285.97 C 84.6588,285.97 84.6588,321.898 84.6588,321.898 84.6588,321.898 77.2188,321.898 77.2188,321.898 77.2188,321.898 77.2188,285.97 77.2188,285.97 77.2188,285.97 84.6588,285.97 84.6588,285.97 Z"/>
                                                            <path style="fill:none;stroke-dasharray:none;stroke-linecap:butt;stroke-linejoin:miter;stroke-miterlimit:4;" sodipodi:nodetypes="cccc" d="M 84.6588,285.97 C 84.6588,285.97 84.6588,321.898 84.6588,321.898 84.6588,321.898 77.2188,321.898 77.2188,321.898 77.2188,321.898 77.2188,285.97 77.2188,285.97 77.2188,285.97 84.6588,285.97 84.6588,285.97 Z"/>
                                                        </g>
                                                        <g id="Group_8bba2c13e9224efba6b2db203b27d86f" inkscape:label="path419" opacity="1" transform="matrix(1, 0, 0, 1, 0, 0)">
                                                            <g id="Fill_5d6f21d3585a4b1e9d8da94966790dc6" style="stroke:none;" inkscape:label="Fill" fill-opacity="1" fill="#ff0000">
                                                                <path style="stroke:none;" sodipodi:nodetypes="ccccccccccccccccc" d="M 98.0748,290.194 C 98.0748,290.786 97.9548,291.346 97.7148,291.874 97.4748,292.386 97.1468,292.842 96.7308,293.242 96.3148,293.626 95.8268,293.938 95.2668,294.178 94.7228,294.402 94.1388,294.514 93.5148,294.514 92.9068,294.514 92.3388,294.402 91.8108,294.178 91.2828,293.938 90.8108,293.626 90.3948,293.242 89.9948,292.842 89.6748,292.386 89.4348,291.874 89.2108,291.346 89.0988,290.786 89.0988,290.194 89.0988,289.586 89.2108,289.018 89.4348,288.49 89.6748,287.962 89.9948,287.498 90.3948,287.098 90.8108,286.698 91.2828,286.386 91.8108,286.162 92.3388,285.938 92.9068,285.826 93.5148,285.826 94.1388,285.826 94.7228,285.938 95.2668,286.162 95.8268,286.386 96.3148,286.698 96.7308,287.098 97.1468,287.498 97.4748,287.962 97.7148,288.49 97.9548,289.018 98.0748,289.586 98.0748,290.194 98.0748,290.194 98.0748,290.194 98.0748,290.194 Z"/>
                                                                <path style="stroke:none;" sodipodi:nodetypes="cccc" d="M 97.3068,297.01 C 97.3068,297.01 97.3068,321.898 97.3068,321.898 97.3068,321.898 89.8668,321.898 89.8668,321.898 89.8668,321.898 89.8668,297.01 89.8668,297.01 89.8668,297.01 97.3068,297.01 97.3068,297.01 Z"/>
                                                            </g>
                                                            <g id="Stroke_df9bdf6f17f34365b29f0274925c707d" style="fill:none;stroke-dasharray:none;stroke-linecap:butt;stroke-linejoin:miter;stroke-miterlimit:4;" stroke-opacity="1" inkscape:label="Stroke" stroke-width="1" stroke="#00000000">
                                                                <path style="fill:none;stroke-dasharray:none;stroke-linecap:butt;stroke-linejoin:miter;stroke-miterlimit:4;" sodipodi:nodetypes="ccccccccccccccccc" d="M 98.0748,290.194 C 98.0748,290.786 97.9548,291.346 97.7148,291.874 97.4748,292.386 97.1468,292.842 96.7308,293.242 96.3148,293.626 95.8268,293.938 95.2668,294.178 94.7228,294.402 94.1388,294.514 93.5148,294.514 92.9068,294.514 92.3388,294.402 91.8108,294.178 91.2828,293.938 90.8108,293.626 90.3948,293.242 89.9948,292.842 89.6748,292.386 89.4348,291.874 89.2108,291.346 89.0988,290.786 89.0988,290.194 89.0988,289.586 89.2108,289.018 89.4348,288.49 89.6748,287.962 89.9948,287.498 90.3948,287.098 90.8108,286.698 91.2828,286.386 91.8108,286.162 92.3388,285.938 92.9068,285.826 93.5148,285.826 94.1388,285.826 94.7228,285.938 95.2668,286.162 95.8268,286.386 96.3148,286.698 96.7308,287.098 97.1468,287.498 97.4748,287.962 97.7148,288.49 97.9548,289.018 98.0748,289.586 98.0748,290.194 98.0748,290.194 98.0748,290.194 98.0748,290.194 Z"/>
                                                                <path style="fill:none;stroke-dasharray:none;stroke-linecap:butt;stroke-linejoin:miter;stroke-miterlimit:4;" sodipodi:nodetypes="cccc" d="M 97.3068,297.01 C 97.3068,297.01 97.3068,321.898 97.3068,321.898 97.3068,321.898 89.8668,321.898 89.8668,321.898 89.8668,321.898 89.8668,297.01 89.8668,297.01 89.8668,297.01 97.3068,297.01 97.3068,297.01 Z"/>
                                                            </g>
                                                        </g>
                                                        <g id="Stroke_ae00420cb2c941f48beb0af57404330d" stroke-opacity="1" inkscape:label="path421" stroke-width="1" stroke="#00000000" opacity="1" fill-opacity="1" transform="matrix(1, 0, 0, 1, 0, 0)" fill="#ff0000">
                                                            <path style="stroke:none;" sodipodi:nodetypes="cccc" d="M 121.043,285.97 C 121.043,285.97 121.043,321.898 121.043,321.898 121.043,321.898 113.603,321.898 113.603,321.898 113.603,321.898 113.603,285.97 113.603,285.97 113.603,285.97 121.043,285.97 121.043,285.97 Z"/>
                                                            <path style="fill:none;stroke-dasharray:none;stroke-linecap:butt;stroke-linejoin:miter;stroke-miterlimit:4;" sodipodi:nodetypes="cccc" d="M 121.043,285.97 C 121.043,285.97 121.043,321.898 121.043,321.898 121.043,321.898 113.603,321.898 113.603,321.898 113.603,321.898 113.603,285.97 113.603,285.97 113.603,285.97 121.043,285.97 121.043,285.97 Z"/>
                                                        </g>
                                                        <g id="Group_03a4d8653de9487b8366bdc98dd66b28" inkscape:label="path423" opacity="1" transform="matrix(1, 0, 0, 1, 0, 0)">
                                                            <g id="Fill_934fc8c21812467fa3f36a875c93bb0f" style="stroke:none;" inkscape:label="Fill" fill-opacity="1" fill="#ff0000">
                                                                <path style="stroke:none;" sodipodi:nodetypes="ccccccccccccccccc" d="M 134.459,290.194 C 134.459,290.786 134.339,291.346 134.099,291.874 133.859,292.386 133.531,292.842 133.115,293.242 132.699,293.626 132.211,293.938 131.651,294.178 131.107,294.402 130.523,294.514 129.899,294.514 129.291,294.514 128.723,294.402 128.195,294.178 127.667,293.938 127.195,293.626 126.779,293.242 126.379,292.842 126.059,292.386 125.819,291.874 125.595,291.346 125.483,290.786 125.483,290.194 125.483,289.586 125.595,289.018 125.819,288.49 126.059,287.962 126.379,287.498 126.779,287.098 127.195,286.698 127.667,286.386 128.195,286.162 128.723,285.938 129.291,285.826 129.899,285.826 130.523,285.826 131.107,285.938 131.651,286.162 132.211,286.386 132.699,286.698 133.115,287.098 133.531,287.498 133.859,287.962 134.099,288.49 134.339,289.018 134.459,289.586 134.459,290.194 134.459,290.194 134.459,290.194 134.459,290.194 Z"/>
                                                                <path style="stroke:none;" sodipodi:nodetypes="cccc" d="M 133.691,297.01 C 133.691,297.01 133.691,321.898 133.691,321.898 133.691,321.898 126.251,321.898 126.251,321.898 126.251,321.898 126.251,297.01 126.251,297.01 126.251,297.01 133.691,297.01 133.691,297.01 Z"/>
                                                            </g>
                                                            <g id="Stroke_bc9e20dc061d40a0b29ca964a1c01895" style="fill:none;stroke-dasharray:none;stroke-linecap:butt;stroke-linejoin:miter;stroke-miterlimit:4;" stroke-opacity="1" inkscape:label="Stroke" stroke-width="1" stroke="#00000000">
                                                                <path style="fill:none;stroke-dasharray:none;stroke-linecap:butt;stroke-linejoin:miter;stroke-miterlimit:4;" sodipodi:nodetypes="ccccccccccccccccc" d="M 134.459,290.194 C 134.459,290.786 134.339,291.346 134.099,291.874 133.859,292.386 133.531,292.842 133.115,293.242 132.699,293.626 132.211,293.938 131.651,294.178 131.107,294.402 130.523,294.514 129.899,294.514 129.291,294.514 128.723,294.402 128.195,294.178 127.667,293.938 127.195,293.626 126.779,293.242 126.379,292.842 126.059,292.386 125.819,291.874 125.595,291.346 125.483,290.786 125.483,290.194 125.483,289.586 125.595,289.018 125.819,288.49 126.059,287.962 126.379,287.498 126.779,287.098 127.195,286.698 127.667,286.386 128.195,286.162 128.723,285.938 129.291,285.826 129.899,285.826 130.523,285.826 131.107,285.938 131.651,286.162 132.211,286.386 132.699,286.698 133.115,287.098 133.531,287.498 133.859,287.962 134.099,288.49 134.339,289.018 134.459,289.586 134.459,290.194 134.459,290.194 134.459,290.194 134.459,290.194 Z"/>
                                                                <path style="fill:none;stroke-dasharray:none;stroke-linecap:butt;stroke-linejoin:miter;stroke-miterlimit:4;" sodipodi:nodetypes="cccc" d="M 133.691,297.01 C 133.691,297.01 133.691,321.898 133.691,321.898 133.691,321.898 126.251,321.898 126.251,321.898 126.251,321.898 126.251,297.01 126.251,297.01 126.251,297.01 133.691,297.01 133.691,297.01 Z"/>
                                                            </g>
                                                        </g>
                                                        <g id="Stroke_ade63c215b424b2ca922d31451162556" stroke-opacity="1" inkscape:label="path425" stroke-width="1" stroke="#00000000" opacity="1" fill-opacity="1" transform="matrix(1, 0, 0, 1, 0, 0)" fill="#ff0000">
                                                            <path style="stroke:none;" sodipodi:nodetypes="ccccccccccccccccccccc" d="M 138.899,321.898 C 138.899,321.898 138.899,297.01 138.899,297.01 138.899,297.01 143.507,297.01 143.507,297.01 144.435,297.01 145.043,297.426 145.331,298.258 145.331,298.258 145.763,299.698 145.763,299.698 146.243,299.25 146.739,298.834 147.251,298.45 147.763,298.066 148.307,297.746 148.883,297.49 149.475,297.218 150.107,297.01 150.779,296.866 151.467,296.706 152.211,296.626 153.011,296.626 154.371,296.626 155.571,296.866 156.611,297.346 157.667,297.81 158.555,298.466 159.275,299.314 159.995,300.146 160.539,301.146 160.907,302.314 161.275,303.466 161.459,304.722 161.459,306.082 161.459,306.082 161.459,321.898 161.459,321.898 161.459,321.898 154.019,321.898 154.019,321.898 154.019,321.898 154.019,306.082 154.019,306.082 154.019,304.866 153.739,303.922 153.179,303.25 152.619,302.562 151.795,302.218 150.707,302.218 149.891,302.218 149.123,302.394 148.403,302.746 147.683,303.098 146.995,303.57 146.339,304.162 146.339,304.162 146.339,321.898 146.339,321.898 146.339,321.898 138.899,321.898 138.899,321.898 Z"/>
                                                            <path style="fill:none;stroke-dasharray:none;stroke-linecap:butt;stroke-linejoin:miter;stroke-miterlimit:4;" sodipodi:nodetypes="ccccccccccccccccccccc" d="M 138.899,321.898 C 138.899,321.898 138.899,297.01 138.899,297.01 138.899,297.01 143.507,297.01 143.507,297.01 144.435,297.01 145.043,297.426 145.331,298.258 145.331,298.258 145.763,299.698 145.763,299.698 146.243,299.25 146.739,298.834 147.251,298.45 147.763,298.066 148.307,297.746 148.883,297.49 149.475,297.218 150.107,297.01 150.779,296.866 151.467,296.706 152.211,296.626 153.011,296.626 154.371,296.626 155.571,296.866 156.611,297.346 157.667,297.81 158.555,298.466 159.275,299.314 159.995,300.146 160.539,301.146 160.907,302.314 161.275,303.466 161.459,304.722 161.459,306.082 161.459,306.082 161.459,321.898 161.459,321.898 161.459,321.898 154.019,321.898 154.019,321.898 154.019,321.898 154.019,306.082 154.019,306.082 154.019,304.866 153.739,303.922 153.179,303.25 152.619,302.562 151.795,302.218 150.707,302.218 149.891,302.218 149.123,302.394 148.403,302.746 147.683,303.098 146.995,303.57 146.339,304.162 146.339,304.162 146.339,321.898 146.339,321.898 146.339,321.898 138.899,321.898 138.899,321.898 Z"/>
                                                        </g>
                                                        <g id="Stroke_3bdec5e14ae8487caf1e474e0a6c67e6" stroke-opacity="1" inkscape:label="path427" stroke-width="1" stroke="#00000000" opacity="1" fill-opacity="1" transform="matrix(1, 0, 0, 1, 0, 0)" fill="#ff0000">
                                                            <path style="stroke:none;" sodipodi:nodetypes="ccccccccccccccccccccc" d="M 173.459,297.01 C 173.459,297.01 173.459,312.802 173.459,312.802 173.459,314.034 173.739,314.986 174.299,315.658 174.859,316.33 175.683,316.666 176.771,316.666 177.587,316.666 178.347,316.498 179.051,316.162 179.771,315.826 180.467,315.354 181.139,314.746 181.139,314.746 181.139,297.01 181.139,297.01 181.139,297.01 188.579,297.01 188.579,297.01 188.579,297.01 188.579,321.898 188.579,321.898 188.579,321.898 183.971,321.898 183.971,321.898 183.043,321.898 182.435,321.482 182.147,320.65 182.147,320.65 181.691,319.21 181.691,319.21 181.211,319.674 180.715,320.098 180.203,320.482 179.691,320.85 179.139,321.17 178.547,321.442 177.971,321.698 177.347,321.898 176.675,322.042 176.003,322.202 175.267,322.282 174.467,322.282 173.107,322.282 171.899,322.05 170.843,321.586 169.803,321.106 168.923,320.442 168.203,319.594 167.483,318.746 166.939,317.746 166.571,316.594 166.203,315.442 166.019,314.178 166.019,312.802 166.019,312.802 166.019,297.01 166.019,297.01 166.019,297.01 173.459,297.01 173.459,297.01 Z"/>
                                                            <path style="fill:none;stroke-dasharray:none;stroke-linecap:butt;stroke-linejoin:miter;stroke-miterlimit:4;" sodipodi:nodetypes="ccccccccccccccccccccc" d="M 173.459,297.01 C 173.459,297.01 173.459,312.802 173.459,312.802 173.459,314.034 173.739,314.986 174.299,315.658 174.859,316.33 175.683,316.666 176.771,316.666 177.587,316.666 178.347,316.498 179.051,316.162 179.771,315.826 180.467,315.354 181.139,314.746 181.139,314.746 181.139,297.01 181.139,297.01 181.139,297.01 188.579,297.01 188.579,297.01 188.579,297.01 188.579,321.898 188.579,321.898 188.579,321.898 183.971,321.898 183.971,321.898 183.043,321.898 182.435,321.482 182.147,320.65 182.147,320.65 181.691,319.21 181.691,319.21 181.211,319.674 180.715,320.098 180.203,320.482 179.691,320.85 179.139,321.17 178.547,321.442 177.971,321.698 177.347,321.898 176.675,322.042 176.003,322.202 175.267,322.282 174.467,322.282 173.107,322.282 171.899,322.05 170.843,321.586 169.803,321.106 168.923,320.442 168.203,319.594 167.483,318.746 166.939,317.746 166.571,316.594 166.203,315.442 166.019,314.178 166.019,312.802 166.019,312.802 166.019,297.01 166.019,297.01 166.019,297.01 173.459,297.01 173.459,297.01 Z"/>
                                                        </g>
                                                        <g id="Stroke_dd98dea5b51440bba7cb5fede701a926" stroke-opacity="1" inkscape:label="path429" stroke-width="1" stroke="#00000000" opacity="1" fill-opacity="1" transform="matrix(1, 0, 0, 1, 0, 0)" fill="#ff0000">
                                                            <path style="stroke:none;" sodipodi:nodetypes="cccccccccccccccccccccc" d="M 199.235,309.034 C 199.235,309.034 191.219,297.01 191.219,297.01 191.219,297.01 198.371,297.01 198.371,297.01 198.899,297.01 199.283,297.082 199.523,297.226 199.779,297.354 200.003,297.578 200.195,297.898 200.195,297.898 204.635,305.266 204.635,305.266 204.827,304.674 205.107,304.106 205.475,303.562 205.475,303.562 208.643,298.018 208.643,298.018 208.867,297.666 209.099,297.41 209.339,297.25 209.595,297.09 209.907,297.01 210.275,297.01 210.275,297.01 217.091,297.01 217.091,297.01 217.091,297.01 209.075,308.698 209.075,308.698 209.075,308.698 217.427,321.898 217.427,321.898 217.427,321.898 210.275,321.898 210.275,321.898 209.747,321.898 209.315,321.77 208.979,321.514 208.659,321.258 208.403,320.954 208.211,320.602 208.211,320.602 203.771,312.97 203.771,312.97 203.595,313.53 203.379,314.01 203.123,314.41 203.123,314.41 199.475,320.602 199.475,320.602 199.251,320.922 198.987,321.218 198.683,321.49 198.379,321.762 197.987,321.898 197.507,321.898 197.507,321.898 190.883,321.898 190.883,321.898 190.883,321.898 199.235,309.034 199.235,309.034 Z"/>
                                                            <path style="fill:none;stroke-dasharray:none;stroke-linecap:butt;stroke-linejoin:miter;stroke-miterlimit:4;" sodipodi:nodetypes="cccccccccccccccccccccc" d="M 199.235,309.034 C 199.235,309.034 191.219,297.01 191.219,297.01 191.219,297.01 198.371,297.01 198.371,297.01 198.899,297.01 199.283,297.082 199.523,297.226 199.779,297.354 200.003,297.578 200.195,297.898 200.195,297.898 204.635,305.266 204.635,305.266 204.827,304.674 205.107,304.106 205.475,303.562 205.475,303.562 208.643,298.018 208.643,298.018 208.867,297.666 209.099,297.41 209.339,297.25 209.595,297.09 209.907,297.01 210.275,297.01 210.275,297.01 217.091,297.01 217.091,297.01 217.091,297.01 209.075,308.698 209.075,308.698 209.075,308.698 217.427,321.898 217.427,321.898 217.427,321.898 210.275,321.898 210.275,321.898 209.747,321.898 209.315,321.77 208.979,321.514 208.659,321.258 208.403,320.954 208.211,320.602 208.211,320.602 203.771,312.97 203.771,312.97 203.595,313.53 203.379,314.01 203.123,314.41 203.123,314.41 199.475,320.602 199.475,320.602 199.251,320.922 198.987,321.218 198.683,321.49 198.379,321.762 197.987,321.898 197.507,321.898 197.507,321.898 190.883,321.898 190.883,321.898 190.883,321.898 199.235,309.034 199.235,309.034 Z"/>
                                                        </g>
                                                    </g>
                                                </g>
                                            </g>
                                        </g>
                                    </g>
                                </g>
                            </g>
                        </g>
                    </g>
                    <animateMotion dur="5.000000" calcMode="spline" keyTimes="0.000000; 0.250000; 0.500000; 0.750000; 1.000000" attributeName="transform" keySplines="0.333333 0.333333 1.000000 1.000000; 0.333333 0.333333 1.000000 1.000000; 0.333333 0.333333 1.000000 1.000000; 0.333333 0.333333 1.000000 1.000000" path="M 110.457,181.098 C 110.457,181.098 266.389,178.387 266.389,178.387 266.389,178.387 496.898,181.098 496.898,181.098 496.898,181.098 572.83,303.132 572.83,303.132 572.83,303.132 841.304,387.2 841.304,387.2" begin="0.000000" repeatCount="indefinite"/>
                </g>
                <g id="Layer_4a634ce321e9414da35ac1e043f49edb" inkscape:label="Composition Layer" opacity="1" inkscape:groupmode="layer" transform="matrix(0.895994, 0, 0, 1, 73.2201, 0)">
                    <g id="Layer_a4c97af6ea124669aaac2271a4f96e7f" inkscape:label="svg74" opacity="1" inkscape:groupmode="layer" transform="matrix(29.3333, 0, 0, 14.6667, 0, 0)">
                        <g id="Group_13d998568c654f39a80214c2b8261fb8" inkscape:label="g453" opacity="1" transform="matrix(1, 0, 0, 1, -1.27463, 17.8113)">
                            <g id="Group_4c47ab78562a435dad02414691f83ebb" inkscape:label="path72" opacity="1" transform="matrix(1, 0, 0, 1, 0, 0)">
                                <g id="Group_1a65d620a89f40bfbda439d8880d90ef" inkscape:label="Fill" opacity="1" transform="matrix(1, 0, 0, 1, 0, 0)">
                                    <g id="Fill_c6e8910a788f43248102cce15c21d0ab" inkscape:label="path139" opacity="1" fill-opacity="1" transform="matrix(1, 0, 0, 1, 0, 0)" fill="#ff0000">
                                        <path style="stroke:none;" sodipodi:nodetypes="cccccc" d="M 12.68,-12.1826 C 12.68,-12.1826 12.53,-12.6676 12.53,-12.6676 12.53,-12.6676 10.046,-13.1086 6.708,-12.8716 3.37,-12.6346 -8.88178e-16,-11.4656 -8.88178e-16,-11.4656 -8.88178e-16,-11.4656 6.896,-13.2006 12.68,-12.1826 12.68,-12.1826 12.68,-12.1826 12.68,-12.1826 12.68,-12.1826 12.68,-12.1826 12.68,-12.1826 Z"/>
                                    </g>
                                    <g id="Fill_5b97ce22560d4e58ae06afcba52fd135" inkscape:label="path141" opacity="1" fill-opacity="1" transform="matrix(1, 0, 0, 1, 0, 0)" fill="#ff0000">
                                        <path style="stroke:none;" sodipodi:nodetypes="ccccccccccccccccccccccccccccccccccc" d="M 23.997,0.411448 C 23.997,0.411448 24.309,-3.16655 18.687,-3.99155 17.851,-4.11213 17.0076,-4.17462 16.163,-4.17855 11.657,-4.11855 11.493,-9.37555 14.888,-9.64055 16.295,-9.75655 17.975,-8.99755 19.618,-8.23255 19.611,-8.02855 19.62,-7.84755 19.754,-7.68055 19.888,-7.51255 20.402,-7.33055 20.567,-7.23555 20.731,-7.14155 21.258,-6.80555 21.581,-6.38555 21.651,-6.51655 22.235,-6.89755 22.235,-6.89755 22.235,-6.89755 22.095,-6.89455 21.77,-7.01655 21.444,-7.13855 21.057,-7.50655 21.048,-7.52755 21.038,-7.54955 21.033,-7.58255 21.108,-7.59755 21.167,-7.64655 21.036,-7.80455 20.978,-7.86255 20.92,-7.92055 20.533,-8.57855 20.524,-8.59255 20.515,-8.60855 20.512,-8.62355 20.484,-8.64255 20.399,-8.66955 20.024,-8.60255 20.024,-8.60255 20.024,-8.60255 19.449,-8.88555 19.25,-9.49555 19.253,-9.38855 19.151,-9.27155 19.25,-9.02655 18.95,-9.15355 18.692,-9.37055 18.488,-9.90655 18.368,-9.60155 18.488,-9.40755 18.488,-9.40755 18.488,-9.40755 17.781,-9.60555 17.668,-10.2576 17.544,-9.96455 17.668,-9.78855 17.668,-9.78855 17.668,-9.78855 16.515,-10.3906 14.599,-10.3986 13.316,-10.5166 13.049,-12.7726 13.169,-13.1526 13.169,-13.1526 11.319,-14.1276 7.676,-14.5586 4.034,-14.9886 1.048,-14.6236 1.048,-14.6236 1.048,-14.6236 7.498,-14.9336 12.665,-12.8406 12.841,-12.0556 13.369,-10.7466 13.654,-10.1176 12.839,-9.55455 11.921,-9.02555 11.778,-7.14755 11.635,-5.26955 13.25,-3.61755 15.252,-3.56755 17.152,-3.46555 18.466,-3.45155 20.058,-2.62555 21.578,-1.78555 22.824,0.774448 22.948,3.07745 23.08,1.36845 22.439,-2.30555 19.448,-3.42055 23.629,-2.68855 23.997,0.411448 23.997,0.411448 23.997,0.411448 23.997,0.411448 23.997,0.411448 23.997,0.411448 23.997,0.411448 23.997,0.411448 Z"/>
                                    </g>
                                    <g id="Fill_f75528e5e23d47b2b7734d1e7ec1ed0f" inkscape:label="path143" opacity="1" fill-opacity="1" transform="matrix(1, 0, 0, 1, 0, 0)" fill="#ff0000">
                                        <path style="stroke:none;" sodipodi:nodetypes="ccccccc" d="M 20.549,-8.06755 C 20.588,-8.13555 20.715,-7.85055 20.812,-7.73055 20.816,-7.70655 20.822,-7.69155 20.767,-7.70355 20.762,-7.72855 20.754,-7.73555 20.754,-7.73555 20.754,-7.73555 20.619,-7.81555 20.577,-7.87255 20.536,-7.92955 20.528,-8.02955 20.549,-8.06755 20.549,-8.06755 20.549,-8.06755 20.549,-8.06755 20.549,-8.06755 20.549,-8.06755 20.549,-8.06755 Z"/>
                                    </g>
                                    <g id="Fill_2916d3fe556744baa73e93700e6a3726" inkscape:label="path145" opacity="1" fill-opacity="1" transform="matrix(1, 0, 0, 1, 0, 0)" fill="#ff0000">
                                        <path style="stroke:none;" sodipodi:nodetypes="ccccc" d="M 20.129,-8.80755 C 20.129,-8.80755 20.386,-8.82455 20.386,-8.82455 20.386,-8.82455 18.918,-10.6046 16.108,-11.4726 17.688,-10.8306 19.062,-9.97955 20.129,-8.80755 20.129,-8.80755 20.129,-8.80755 20.129,-8.80755 20.129,-8.80755 20.129,-8.80755 20.129,-8.80755 Z"/>
                                    </g>
                                    <g id="Fill_4db8bf6850784c0694b1fb5cc34cb5ea" inkscape:label="path147" opacity="1" fill-opacity="1" transform="matrix(1, 0, 0, 1, 0, 0)" fill="#ff0000">
                                        <path style="stroke:none;" sodipodi:nodetypes="ccccc" d="M 12.778,-11.9026 C 12.778,-11.9026 10.808,-12.0326 7.451,-10.9826 4.031,-9.91255 2.091,-8.39555 2.091,-8.39555 2.091,-8.39555 7.189,-11.2426 12.943,-11.4036 12.943,-11.4036 12.778,-11.9026 12.778,-11.9026 12.778,-11.9026 12.778,-11.9026 12.778,-11.9026 Z"/>
                                    </g>
                                </g>
                                <g id="Group_d53b1de6138244959d6aa05691f3e72b" inkscape:label="Stroke" opacity="1" transform="matrix(1, 0, 0, 1, 0, 0)">
                                    <g id="Stroke_9736e6a9a1604008b44dcbc612d6048d" stroke-opacity="1" inkscape:label="path150" stroke-width="1" stroke="#00000000" opacity="1" transform="matrix(1, 0, 0, 1, 0, 0)">
                                        <path style="fill:none;stroke-dasharray:none;stroke-linecap:butt;stroke-linejoin:miter;stroke-miterlimit:4;" sodipodi:nodetypes="cccccc" d="M 12.68,-12.1826 C 12.68,-12.1826 12.53,-12.6676 12.53,-12.6676 12.53,-12.6676 10.046,-13.1086 6.708,-12.8716 3.37,-12.6346 -8.88178e-16,-11.4656 -8.88178e-16,-11.4656 -8.88178e-16,-11.4656 6.896,-13.2006 12.68,-12.1826 12.68,-12.1826 12.68,-12.1826 12.68,-12.1826 12.68,-12.1826 12.68,-12.1826 12.68,-12.1826 Z"/>
                                    </g>
                                    <g id="Stroke_313ef43399e64b4f9dcc50fc5585935c" stroke-opacity="1" inkscape:label="path152" stroke-width="1" stroke="#00000000" opacity="1" transform="matrix(1, 0, 0, 1, 0, 0)">
                                        <path style="fill:none;stroke-dasharray:none;stroke-linecap:butt;stroke-linejoin:miter;stroke-miterlimit:4;" sodipodi:nodetypes="ccccccccccccccccccccccccccccccccccc" d="M 23.997,0.411448 C 23.997,0.411448 24.309,-3.16655 18.687,-3.99155 17.851,-4.11213 17.0076,-4.17462 16.163,-4.17855 11.657,-4.11855 11.493,-9.37555 14.888,-9.64055 16.295,-9.75655 17.975,-8.99755 19.618,-8.23255 19.611,-8.02855 19.62,-7.84755 19.754,-7.68055 19.888,-7.51255 20.402,-7.33055 20.567,-7.23555 20.731,-7.14155 21.258,-6.80555 21.581,-6.38555 21.651,-6.51655 22.235,-6.89755 22.235,-6.89755 22.235,-6.89755 22.095,-6.89455 21.77,-7.01655 21.444,-7.13855 21.057,-7.50655 21.048,-7.52755 21.038,-7.54955 21.033,-7.58255 21.108,-7.59755 21.167,-7.64655 21.036,-7.80455 20.978,-7.86255 20.92,-7.92055 20.533,-8.57855 20.524,-8.59255 20.515,-8.60855 20.512,-8.62355 20.484,-8.64255 20.399,-8.66955 20.024,-8.60255 20.024,-8.60255 20.024,-8.60255 19.449,-8.88555 19.25,-9.49555 19.253,-9.38855 19.151,-9.27155 19.25,-9.02655 18.95,-9.15355 18.692,-9.37055 18.488,-9.90655 18.368,-9.60155 18.488,-9.40755 18.488,-9.40755 18.488,-9.40755 17.781,-9.60555 17.668,-10.2576 17.544,-9.96455 17.668,-9.78855 17.668,-9.78855 17.668,-9.78855 16.515,-10.3906 14.599,-10.3986 13.316,-10.5166 13.049,-12.7726 13.169,-13.1526 13.169,-13.1526 11.319,-14.1276 7.676,-14.5586 4.034,-14.9886 1.048,-14.6236 1.048,-14.6236 1.048,-14.6236 7.498,-14.9336 12.665,-12.8406 12.841,-12.0556 13.369,-10.7466 13.654,-10.1176 12.839,-9.55455 11.921,-9.02555 11.778,-7.14755 11.635,-5.26955 13.25,-3.61755 15.252,-3.56755 17.152,-3.46555 18.466,-3.45155 20.058,-2.62555 21.578,-1.78555 22.824,0.774448 22.948,3.07745 23.08,1.36845 22.439,-2.30555 19.448,-3.42055 23.629,-2.68855 23.997,0.411448 23.997,0.411448 23.997,0.411448 23.997,0.411448 23.997,0.411448 23.997,0.411448 23.997,0.411448 23.997,0.411448 Z"/>
                                    </g>
                                    <g id="Stroke_afb69ff0c15d41ef82954449df1575d4" stroke-opacity="1" inkscape:label="path154" stroke-width="1" stroke="#00000000" opacity="1" transform="matrix(1, 0, 0, 1, 0, 0)">
                                        <path style="fill:none;stroke-dasharray:none;stroke-linecap:butt;stroke-linejoin:miter;stroke-miterlimit:4;" sodipodi:nodetypes="ccccccc" d="M 20.549,-8.06755 C 20.588,-8.13555 20.715,-7.85055 20.812,-7.73055 20.816,-7.70655 20.822,-7.69155 20.767,-7.70355 20.762,-7.72855 20.754,-7.73555 20.754,-7.73555 20.754,-7.73555 20.619,-7.81555 20.577,-7.87255 20.536,-7.92955 20.528,-8.02955 20.549,-8.06755 20.549,-8.06755 20.549,-8.06755 20.549,-8.06755 20.549,-8.06755 20.549,-8.06755 20.549,-8.06755 Z"/>
                                    </g>
                                    <g id="Stroke_a9052f05033b4d24a680a5129ce6e7ea" stroke-opacity="1" inkscape:label="path156" stroke-width="1" stroke="#00000000" opacity="1" transform="matrix(1, 0, 0, 1, 0, 0)">
                                        <path style="fill:none;stroke-dasharray:none;stroke-linecap:butt;stroke-linejoin:miter;stroke-miterlimit:4;" sodipodi:nodetypes="ccccc" d="M 20.129,-8.80755 C 20.129,-8.80755 20.386,-8.82455 20.386,-8.82455 20.386,-8.82455 18.918,-10.6046 16.108,-11.4726 17.688,-10.8306 19.062,-9.97955 20.129,-8.80755 20.129,-8.80755 20.129,-8.80755 20.129,-8.80755 20.129,-8.80755 20.129,-8.80755 20.129,-8.80755 Z"/>
                                    </g>
                                    <g id="Stroke_84c13d32a0e64090a9196b2c9df356fc" stroke-opacity="1" inkscape:label="path158" stroke-width="1" stroke="#00000000" opacity="1" transform="matrix(1, 0, 0, 1, 0, 0)">
                                        <path style="fill:none;stroke-dasharray:none;stroke-linecap:butt;stroke-linejoin:miter;stroke-miterlimit:4;" sodipodi:nodetypes="ccccc" d="M 12.778,-11.9026 C 12.778,-11.9026 10.808,-12.0326 7.451,-10.9826 4.031,-9.91255 2.091,-8.39555 2.091,-8.39555 2.091,-8.39555 7.189,-11.2426 12.943,-11.4036 12.943,-11.4036 12.778,-11.9026 12.778,-11.9026 12.778,-11.9026 12.778,-11.9026 12.778,-11.9026 Z"/>
                                    </g>
                                </g>
                            </g>
                        </g>
                        <g id="Fill_3619461b346c4c1b896d50321f18f6df" inkscape:label="Group" opacity="1" fill-opacity="1" transform="matrix(0.918023, 0.00152529, -0.00188176, 1.13257, -5.92113, 2.0911)" fill="#000000">
                            <text style="font-family:Noto Sans Mono;font-size:2.25pt;font-style:normal;font-weight:400;line-height:11.4098px;stroke:none;" x="19.4409" y="8.84629">
                                <tspan xml:space="preserve" sodipodi:role="line" x="19.4409" y="8.84629">KALI</tspan>
                            </text>
                        </g>
                    </g>
                </g>
            </g>
        </g>
    </g>
</svg>
